<svg width="100%" height="179" viewBox="0 0 204 179" xmlns="http://www.w3.org/2000/svg">
   <g fill="none" fill-rule="evenodd">
      <path d="M183.173 78c0 43.078-34.923 78-78 78-43.08 0-78-34.922-78-78s34.92-78 78-78c43.077 0 78 34.922 78 78" fill="#F8F8F8"/>
      <path d="M103.172 117H33.918c-10.72 0-19.405 8.688-19.405 19.405v.19c0 10.717 8.686 19.405 19.404 19.405h46.98c1.915 0 3.465 1.552 3.465 3.465v.07c0 1.913-1.55 3.465-3.463 3.465h-19.33c-4.144 0-7.5 3.357-7.5 7.5s3.356 7.5 7.5 7.5h68.86c6.314 0 11.434-5.12 11.434-11.436v-.064c0-6.352-5.15-11.5-11.5-11.5h53.504c10.495 0 19-8.507 19-19s-8.505-19-19-19h-30.69" fill="#F8F8F8"/>
      <path d="M103.172 117H33.918c-10.72 0-19.405 8.688-19.405 19.405v.19c0 10.717 8.686 19.405 19.404 19.405h46.98c1.915 0 3.465 1.552 3.465 3.465v.07c0 1.913-1.55 3.465-3.463 3.465h-19.33c-4.144 0-7.5 3.357-7.5 7.5s3.356 7.5 7.5 7.5h68.86c6.314 0 11.434-5.12 11.434-11.436v-.064c0-6.352-5.15-11.5-11.5-11.5h53.504c10.495 0 19-8.507 19-19s-8.505-19-19-19h-30.69" stroke="#CCC" stroke-width="2" stroke-linecap="round" stroke-linejoin="round"/>
      <path d="M74.747 134.31c0 1.714-10.225-.262-13.742.724-1.173.328 5.48 4.1 4.064 4.294-1.696.233-3.538.36-5.465.36-8.362 0-15.14-2.408-15.14-5.38 0-2.97 6.778-5.378 15.14-5.378 8.363 0 15.142 2.408 15.142 5.38" fill="#FFF"/>
      <path d="M74.747 134.31c0 1.714-10.225-.262-13.742.724-1.173.328 5.48 4.1 4.064 4.294-1.696.233-3.538.36-5.465.36-8.362 0-15.14-2.408-15.14-5.38 0-2.97 6.778-5.378 15.14-5.378 8.363 0 15.142 2.408 15.142 5.38z" stroke="#CCC" stroke-width="2" stroke-linecap="round" stroke-linejoin="round"/>
      <path d="M27.224 134.31c-2.963-19.663-14.242-33.524-14.242-33.524" stroke="#CCC" stroke-width="2" stroke-linecap="round" stroke-linejoin="round"/>
      <path d="M1.376 85.674L7.94 98.816c.88 1.758 3.02 2.472 4.778 1.593 1.76-.88 2.472-3.017 1.594-4.777L7.747 82.49c-.88-1.757-3.017-2.47-4.776-1.592-1.76.88-2.472 3.016-1.594 4.776z" stroke="#CCC" stroke-width="2" stroke-linecap="round" stroke-linejoin="round"/>
      <path d="M35.122 134.31c1.405-26.434-5.797-43.55-5.797-43.55" stroke="#CCC" stroke-width="2" stroke-linecap="round" stroke-linejoin="round"/>
      <path d="M19.902 67.258l4.95 20.452c.463 1.91 2.388 3.085 4.3 2.623 1.91-.463 3.084-2.388 2.622-4.3l-4.95-20.45c-.464-1.912-2.388-3.086-4.3-2.623-1.91.462-3.085 2.387-2.622 4.298z" stroke="#CCC" stroke-width="2" stroke-linecap="round" stroke-linejoin="round"/>
      <path d="M76.172 62.365v2.1c0 .688-.15 1.353-.425 1.958-.54 1.185-1.56 2.14-2.87 2.6l-.242.087c-3.156 1.11-6.463-1.23-6.463-4.576v-16.31c0-2.333 1.892-4.224 4.225-4.224h39.365l.552 23.938-14.03-2.244-3.407 3.33-2.828.163-4.043-3.493-2.5 3.054-2.335.57L78 68.202l-1.828-5.838z" fill="#FFF"/>
      <path d="M127.95 52.92s26.352 42.102 26.352 83.08h-55.13V69.197c0-2.3-1.787-4.168-4.09-4.168l.04.04" fill="#FFF"/>
      <path d="M76.172 62v2.43c0 2.058-1.298 3.892-3.24 4.576l-.298.104c-3.154 1.11-6.46-1.23-6.46-4.576l-.002-16.31c0-2.332 1.893-4.224 4.225-4.224h39.775" fill="#FFF"/>
      <path d="M76.172 62v2.43c0 2.058-1.298 3.892-3.24 4.576l-.298.104c-3.154 1.11-6.46-1.23-6.46-4.576l-.002-16.31c0-2.332 1.893-4.224 4.225-4.224h39.775" stroke="#CCC" stroke-width="2" stroke-linecap="round" stroke-linejoin="round"/>
      <path d="M85.172 62v2.4c0 2.04-1.278 3.865-3.197 4.56-3.162 1.148-6.505-1.195-6.505-4.56" stroke="#CCC" stroke-width="2" stroke-linecap="round" stroke-linejoin="round"/>
      <path d="M95.172 62v2.4c0 2.04-1.278 3.865-3.197 4.56-3.162 1.148-6.505-1.195-6.505-4.56" stroke="#CCC" stroke-width="2" stroke-linecap="round" stroke-linejoin="round"/>
      <path d="M67.385 52.816c3.84-1.14 6.82-4.27 7.752-8.194.315-1.332-.69-2.615-2.06-2.622l-6.138-.035c-1.527-.008-2.768 1.226-2.768 2.75v5.732c0 1.67 1.613 2.845 3.213 2.37" fill="#FFF"/>
      <path d="M67.385 52.816c3.84-1.14 6.82-4.27 7.752-8.194.315-1.332-.69-2.615-2.06-2.622l-6.138-.035c-1.527-.008-2.768 1.226-2.768 2.75v5.732c0 1.67 1.613 2.845 3.213 2.37z" stroke="#CCC" stroke-width="2" stroke-linecap="round" stroke-linejoin="round"/>
      <path d="M125.193 107.356c3.828-1.665 8.054-2.588 12.494-2.588" stroke="#CCC" stroke-width="2" stroke-linecap="round" stroke-linejoin="round"/>
      <path d="M106.327 136.128c0-9.41 4.145-17.853 10.708-23.6" stroke="#CCC" stroke-width="2" stroke-linecap="round" stroke-linejoin="round"/>
      <path d="M127.278 51.063s27.062 44.287 27.062 85.064" stroke="#CCC" stroke-width="2" stroke-linecap="round" stroke-linejoin="round"/>
      <path d="M99.172 136V69.487c0-2.3-1.865-4.168-4.168-4.168" stroke="#CCC" stroke-width="2" stroke-linecap="round" stroke-linejoin="round"/>
      <path d="M107.51 90.64c0 2.25-1.82 4.073-4.07 4.073s-4.072-1.823-4.072-4.072" stroke="#CCC" stroke-width="2" stroke-linecap="round" stroke-linejoin="round"/>
      <path d="M115.655 90.64c0 2.25-1.822 4.073-4.07 4.073-2.25 0-4.074-1.823-4.074-4.072" stroke="#CCC" stroke-width="2" stroke-linecap="round" stroke-linejoin="round"/>
      <path d="M119.727 94.713c-2.25 0-4.072-1.823-4.072-4.072" stroke="#CCC" stroke-width="2" stroke-linecap="round" stroke-linejoin="round"/>
      <path d="M160.253 136.128l28.966-56.405c1.002-1.953 3.953-1.24 3.953.956v23.394-.032 1.482c0 1.262-.79 2.39-1.977 2.82-1.957.71-4.023-.74-4.023-2.82v9.285c0 1.347-.845 2.552-2.113 3.012l-.587.213c-2.09.76-4.3-.79-4.3-3.013v-.6 9.517c0 1.237-.76 2.348-1.916 2.795-1.966.763-4.084-.688-4.084-2.796v-.277 9.516c0 1.237-.76 2.348-1.916 2.797l-.572.023" fill="#FFF"/>
      <path d="M160.253 136.128l28.966-56.405c1.002-1.953 3.953-1.24 3.953.956v23.394-.032 1.482c0 1.262-.79 2.39-1.977 2.82-1.957.71-4.023-.74-4.023-2.82v9.285c0 1.347-.845 2.552-2.113 3.012l-.587.213c-2.09.76-4.3-.79-4.3-3.013v-.6 9.517c0 1.237-.76 2.348-1.916 2.795-1.966.763-4.084-.688-4.084-2.796v-.277 9.516c0 1.237-.76 2.348-1.916 2.797l-.572.023" stroke="#CCC" stroke-width="2" stroke-linecap="round" stroke-linejoin="round"/>
      <path d="M124.6 37c3.303 0 5.86 2.9 5.446 6.177-.673 5.33-2.43 10.507-6.412 13.78-1.5 1.234-6.56-8.16-7.98-7.048-.88.692 2.022 11.444 1.058 11.936 0 0-2.823.973-5.13.973-9.01 0-16.543-8.688-18.387-20.292C92.733 39.623 95.02 37 97.963 37H124.6z" fill="#F8F8F8"/>
      <path d="M124.6 37c3.303 0 5.86 2.9 5.446 6.177-.673 5.33-2.43 10.507-6.412 13.78-1.5 1.234-6.56-8.16-7.98-7.048-.88.692 2.022 11.444 1.058 11.936 0 0-2.823.973-5.13.973-9.01 0-16.543-8.688-18.387-20.292C92.733 39.623 95.02 37 97.963 37H124.6z" stroke="#CCC" stroke-width="2" stroke-linecap="round" stroke-linejoin="round"/>
      <path d="M140.54 50.142c.903 1.04.792 2.616-.25 3.52-1.04.903-2.615.79-3.52-.25-.902-1.04-2.065-6.188-2.065-6.188s4.933 1.877 5.835 2.918" fill="#CCC"/>
      <path d="M141.023 38.047c1.267-.69 2.854-.224 3.544 1.043s.224 2.853-1.043 3.544c-1.268.69-6.792.726-6.792.726s3.024-4.623 4.29-5.313" fill="#CCC"/>
      <path d="M182.063 138.45c0 2.513-2.037 4.55-4.55 4.55h-27.34" stroke="#CCC" stroke-width="2" stroke-linecap="round" stroke-linejoin="round"/>
      <path d="M136.173 143h-11" stroke="#CCC" stroke-width="2" stroke-linecap="round" stroke-linejoin="round"/>
      <path d="M85.376 138.45c0 2.513 2.037 4.55 4.55 4.55h21.247" stroke="#CCC" stroke-width="2" stroke-linecap="round" stroke-linejoin="round"/>
      <path d="M98.172 148h20" stroke="#CCC" stroke-width="2" stroke-linecap="round" stroke-linejoin="round"/>
      <path d="M108.172 154h-10" stroke="#CCC" stroke-width="2" stroke-linecap="round" stroke-linejoin="round"/>
   </g>
</svg>
